# xmcd CD database file
#
# Track frame offsets:
#	150
#	18781
#	39766
#	58972
#	73485
#	93653
#	112371
#	132726
#	149028
#	170345
#	193342
#	212630
#	235556
#
# Disc length: 3446 seconds
#
# Revision: 1
# Processed by: cddbd v1.5.2PL0 Copyright (c) Steve Scherf et al.
# Submitted via: CDex 1.51
#
DISCID=cf0d740d
DTITLE=Stéphane Grappelli - Reader's Digest - CD1 - Great Evergreens
DYEAR=1900
DGENRE=Jazz
TTITLE0=Manoir de mes rêves - Daphné
TTITLE1=Sweet Georgia Brown
TTITLE2=Ain't Misbehavin'
TTITLE3=It Don't Mean a Thing (If You Ain't Got That Swing)
TTITLE4=Oh, Lady, Be Good !
TTITLE5=The Nearness of You
TTITLE6=Just a Gigolo
TTITLE7=It Might as Well Be Spring
TTITLE8=Stéphane
TTITLE9=Just One of Those Things
TTITLE10=Nice Work if You Can Get It
TTITLE11=Minor Swing
TTITLE12=De partout et d'ailleurs
EXTD=
EXTT0=
EXTT1=
EXTT2=
EXTT3=
EXTT4=
EXTT5=
EXTT6=
EXTT7=
EXTT8=
EXTT9=
EXTT10=
EXTT11=
EXTT12=
PLAYORDER=
